<svg width="60" height="60" viewBox="0 0 60 60" fill="none" xmlns="http://www.w3.org/2000/svg">
<g clip-path="url(#clip0)">
<path d="M55 12.5H42.5V9.99992C42.5 7.24238 40.2577 4.99988 37.5 4.99988H22.5C19.7425 4.99988 17.5 7.24226 17.5 9.99992V12.4999H5.00004C2.24238 12.5 0 14.7424 0 17.4999V49.9999C0 52.7574 2.24238 54.9999 5.00004 54.9999H55.0001C57.7576 54.9999 60.0001 52.7575 60.0001 49.9999V17.4999C60 14.7424 57.7576 12.5 55 12.5ZM20 9.99992C20 8.62179 21.1219 7.49996 22.5 7.49996H37.5C38.8781 7.49996 40 8.62179 40 9.99992V12.4999H20V9.99992ZM57.5 50C57.5 51.3781 56.3782 52.5 55.0001 52.5H5.00004C3.62191 52.5 2.50008 51.3781 2.50008 50V31.8046C3.23848 32.2352 4.08527 32.5 5.00004 32.5H25.0001V36.25C25.0001 36.941 25.5592 37.5001 26.2501 37.5001H33.7501C34.4411 37.5001 35.0002 36.941 35.0002 36.25V32.5H55.0002C55.915 32.5 56.7619 32.2353 57.5002 31.8046V50H57.5ZM27.5 35V30H32.5001V35H27.5ZM57.5 27.5C57.5 28.8781 56.3782 30 55.0001 30H35V28.7499C35 28.059 34.4409 27.4999 33.75 27.4999H26.25C25.5591 27.4999 25 28.059 25 28.7499V30H5.00004C3.62191 30 2.50008 28.8781 2.50008 27.5V17.5C2.50008 16.1219 3.62191 15.0001 5.00004 15.0001H55.0001C56.3782 15.0001 57.5 16.1219 57.5 17.5V27.5Z" fill="#89ACC2"/>
</g>
<defs>
<clipPath id="clip0">
<rect width="60" height="60" fill="white"/>
</clipPath>
</defs>
</svg>
