<svg width="60" height="60" viewBox="0 0 60 60" fill="none" xmlns="http://www.w3.org/2000/svg">
<path d="M49.6897 22.8516L56.0709 13.2798C56.849 12.1126 56.009 10.5469 54.6083 10.5469H37.0302C36.061 10.5469 35.2724 9.75844 35.2724 8.7893V8.78906C35.2724 5.88129 32.9067 3.51562 29.999 3.51562H17.3919C16.6663 1.46965 14.7124 0 12.4208 0C9.51306 0 7.1474 2.36566 7.1474 5.27344V56.4844H5.38959C4.41881 56.4844 3.63177 57.2714 3.63177 58.2422C3.63177 59.213 4.41881 60 5.38959 60C6.88982 60 17.9528 60 19.4521 60C20.4229 60 21.2099 59.213 21.2099 58.2422C21.2099 57.2714 20.4229 56.4844 19.4521 56.4844H17.6943V31.6406H32.0591C32.7847 33.6865 34.7386 35.1562 37.0302 35.1562H54.6083C56.011 35.1562 56.8479 33.5887 56.0709 32.4233L49.6897 22.8516ZM14.1786 56.4844H10.663V5.27344C10.663 4.30418 11.4516 3.51562 12.4208 3.51562C13.3901 3.51562 14.1786 4.30418 14.1786 5.27344C14.1786 6.16863 14.1786 55.5703 14.1786 56.4844ZM31.7568 28.125H17.6943V7.03125H29.999C30.9682 7.03125 31.7568 7.8198 31.7568 8.78906V28.125ZM37.0302 31.6406C36.061 31.6406 35.2724 30.8521 35.2724 29.8828V13.7602C35.8226 13.9553 36.4139 14.0625 37.0302 14.0625H51.3238L46.1145 21.8764C45.7208 22.467 45.7208 23.2362 46.1145 23.8266L51.3238 31.6406H37.0302Z" fill="#89ACC2"/>
</svg>
