<svg width="60" height="60" viewBox="0 0 60 60" fill="none" xmlns="http://www.w3.org/2000/svg">
<g clip-path="url(#clip0)">
<path d="M51.5599 5.54932H8.43162C7.09123 5.54932 6.00104 6.63951 6.00104 7.9799V39.1868C6.00104 39.7051 6.42092 40.1242 6.93842 40.1242H53.0523C53.5697 40.1242 53.9897 39.7051 53.9897 39.1868V7.9799C53.9896 6.63939 52.8994 5.54932 51.5599 5.54932ZM52.1148 38.2493H7.8758V7.97979C7.8758 7.67322 8.12518 7.42396 8.43162 7.42396H51.5599C51.8655 7.42396 52.1148 7.67334 52.1148 7.97979V38.2493Z" fill="#89ACC2"/>
<path d="M49.3028 9.29871H10.6888C10.1715 9.29871 9.75146 9.71859 9.75146 10.2361V35.4373C9.75146 35.9556 10.1713 36.3746 10.6888 36.3746H49.3028C49.8202 36.3746 50.2402 35.9556 50.2402 35.4373V10.2361C50.2402 9.71871 49.8212 9.29871 49.3028 9.29871ZM48.3654 34.4999H11.6262V11.1735H48.3654V34.4999Z" fill="#89ACC2"/>
<path d="M59.8678 49.1696L53.8658 38.7199C53.698 38.4283 53.3887 38.2494 53.0531 38.2494H6.93936C6.60374 38.2494 6.29354 38.4285 6.12667 38.7199L0.12561 49.1696C-0.0412649 49.4603 -0.0403274 49.8164 0.127485 50.1061C0.29436 50.3958 0.603618 50.5738 0.938306 50.5738H59.0551C59.3898 50.5738 59.6981 50.3956 59.8659 50.1061C60.0337 49.8165 60.0347 49.4603 59.8678 49.1696ZM2.55807 48.6991L7.48206 40.124H52.5104L57.4363 48.6991H2.55807Z" fill="#89ACC2"/>
<path d="M35.1672 45.2665H24.8243L22.839 47.6174H37.1516L35.1672 45.2665Z" fill="#89ACC2"/>
<path d="M59.9953 49.928L59.9916 49.6365C59.9916 49.1182 59.5725 48.6991 59.0542 48.6991H0.937383C0.42 48.6991 0 49.118 0 49.6365C0 51.2787 0.734883 53.5059 2.80652 54.3777C2.92184 54.4264 3.04559 54.4508 3.17027 54.4508H57.7747C57.9575 54.4508 58.1385 54.3964 58.2912 54.2961C60.0525 53.1348 60.015 51.0482 59.9953 49.928ZM57.4588 52.5761H3.37641C2.52059 52.1366 2.15215 51.2582 1.99477 50.5739H58.1207C58.0999 51.3839 57.9715 52.1103 57.4588 52.5761Z" fill="#89ACC2"/>
</g>
<defs>
<clipPath id="clip0">
<rect width="60" height="60" fill="white"/>
</clipPath>
</defs>
</svg>
