<svg width="60" height="60" viewBox="0 0 60 60" fill="none" xmlns="http://www.w3.org/2000/svg">
<g clip-path="url(#clip0)">
<path d="M47.6953 0C45.2405 0 42.909 0.70582 40.8941 2.04879C37.4637 0.70418 33.7834 0 30 0C26.2166 0 22.5363 0.70418 19.1059 2.04879C17.091 0.70582 14.7595 0 12.3047 0C5.51988 0 0 5.51988 0 12.3047C0 14.7595 0.70582 17.091 2.04891 19.1059C0.70418 22.5363 0 26.2166 0 30C0 33.403 0.564375 37.1068 2.04891 40.8941C0.70582 42.909 0 45.2405 0 47.6953C0 54.4801 5.51988 60 12.3047 60C14.7595 60 17.091 59.2942 19.1059 57.9512C22.5363 59.2958 26.2166 60 30 60C33.7834 60 37.4637 59.2958 40.8941 57.9512C42.909 59.2942 45.2405 60 47.6953 60C54.4801 60 60 54.4801 60 47.6953C60 45.2405 59.2942 42.909 57.9511 40.8941C59.2612 37.5519 60 33.8837 60 30C60 26.2166 59.2958 22.5363 57.9511 19.1059C59.2942 17.091 60 14.7595 60 12.3047C60 5.51988 54.4801 0 47.6953 0V0ZM38.3201 55.1442L35.9037 44.7906C37.8704 43.9945 39.683 42.798 41.2405 41.2405C42.7697 39.7113 43.9515 37.9363 44.7473 36.0108L55.1087 38.4289C52.4596 46.3 46.2061 52.5281 38.3201 55.1442ZM4.89117 38.4291L15.2525 36.0109C16.884 39.9578 20.1205 43.1815 24.0962 44.7907L21.6798 55.1443C13.7939 52.5281 7.54043 46.3 4.89117 38.4291ZM21.6799 4.85578L24.0963 15.2094C20.188 16.7913 16.8684 19.9975 15.2094 24.0963L4.85578 21.6799C7.48383 13.7577 13.7577 7.48383 21.6799 4.85578ZM3.51562 30C3.51562 28.3206 3.67453 26.6779 3.97488 25.0845L14.2639 27.4857C14.1313 28.3106 14.0625 29.1506 14.0625 30C14.0625 30.8882 14.1373 31.766 14.2822 32.6271L3.99645 35.0277C3.68215 33.3993 3.51562 31.7188 3.51562 30ZM17.5781 30C17.5781 23.2666 23.2666 17.5781 30 17.5781C36.7334 17.5781 42.4219 23.2666 42.4219 30C42.4219 36.7334 36.7334 42.4219 30 42.4219C23.2666 42.4219 17.5781 36.7334 17.5781 30ZM55.1442 21.6799L44.7906 24.0963C43.2087 20.1881 40.0025 16.8684 35.9037 15.2094L38.3201 4.85578C46.2423 7.48383 52.5162 13.7577 55.1442 21.6799ZM56.4844 30C56.4844 31.7188 56.3179 33.3993 56.0036 35.0277L45.7178 32.6271C45.8627 31.766 45.9375 30.8882 45.9375 30C45.9375 29.1506 45.8687 28.3106 45.7361 27.4857L56.0251 25.0845C56.3255 26.6779 56.4844 28.3206 56.4844 30ZM47.6953 3.51562C52.5416 3.51562 56.4844 7.4584 56.4844 12.3047C56.4844 13.2754 56.329 14.2185 56.0288 15.1116C53.3761 10.5123 49.4954 6.62848 44.8886 3.97137C45.7815 3.67102 46.7246 3.51562 47.6953 3.51562ZM34.9156 3.97488L32.5143 14.2639C31.6893 14.1313 30.8494 14.0625 30 14.0625C29.1506 14.0625 28.3107 14.1313 27.4857 14.2639L25.0845 3.97488C26.6779 3.67453 28.3206 3.51562 30 3.51562C31.6794 3.51562 33.3222 3.67453 34.9156 3.97488ZM3.51562 12.3047C3.51562 7.4584 7.4584 3.51562 12.3047 3.51562C13.2754 3.51562 14.2185 3.67102 15.1114 3.97125C10.5123 6.62391 6.62836 10.5046 3.97125 15.1114C3.67102 14.2185 3.51562 13.2754 3.51562 12.3047ZM12.3047 56.4844C7.4584 56.4844 3.51562 52.5416 3.51562 47.6953C3.51562 46.7246 3.67102 45.7815 3.97125 44.8884C6.62391 49.4877 10.5046 53.3715 15.1114 56.0286C14.2185 56.329 13.2754 56.4844 12.3047 56.4844ZM25.0845 56.0251L27.4857 45.7361C28.3107 45.8687 29.1506 45.9375 30 45.9375C30.8494 45.9375 31.6893 45.8687 32.5143 45.7361L34.9156 56.0251C33.3222 56.3255 31.6794 56.4844 30 56.4844C28.3206 56.4844 26.6779 56.3255 25.0845 56.0251ZM56.4844 47.6953C56.4844 52.5416 52.5416 56.4844 47.6953 56.4844C46.7246 56.4844 45.7815 56.329 44.8886 56.0288C49.4877 53.3761 53.3716 49.4954 56.0288 44.8886C56.329 45.7815 56.4844 46.7246 56.4844 47.6953Z" fill="#89ACC2"/>
</g>
<defs>
<clipPath id="clip0">
<rect width="60" height="60" fill="white"/>
</clipPath>
</defs>
</svg>
