<svg width="60" height="60" viewBox="0 0 60 60" fill="none" xmlns="http://www.w3.org/2000/svg">
<g clip-path="url(#clip0)">
<path d="M59.9998 11.5917C59.9998 9.90902 59.3453 8.32723 58.1534 7.13532L52.8638 1.84585C51.6924 0.673156 50.0685 0.000854492 48.4089 0.000854492C46.7492 0.000854492 45.1253 0.673156 43.9525 1.84725L42.672 3.12776C42.1388 3.66096 42.1388 4.52275 42.672 5.05595C43.2052 5.58915 44.067 5.58915 44.6002 5.05595L45.8807 3.77545C47.2101 2.44456 49.6061 2.44456 50.9356 3.77545L56.2251 9.06492C56.9001 9.73992 57.2724 10.6372 57.2724 11.5917C57.2724 12.5462 56.9015 13.4435 56.2251 14.1199L50.8537 19.4913C50.3205 20.0245 50.3246 20.8904 50.8578 21.4236L51.6514 22.2186C51.7578 22.3236 51.8178 22.4695 51.8178 22.6181C51.8178 23.0776 51.1783 23.3436 50.8537 23.0176L36.9844 9.14812C36.878 9.04172 36.818 8.89582 36.818 8.74722C36.818 8.28633 37.4575 8.02313 37.7821 8.34773L46.763 17.3286C47.2962 17.8618 48.158 17.8618 48.6912 17.3286C49.2244 16.7954 49.2244 15.9336 48.6912 15.4004L39.7117 6.42095C39.0994 5.80735 38.2512 5.45544 37.3826 5.45544C35.5676 5.45544 34.0908 6.93223 34.0908 8.74722C34.0908 9.53402 34.3935 10.2977 34.9062 10.8936L4.49042 41.3093C3.95722 41.8425 3.95722 42.7043 4.49042 43.2375L12.6722 51.4192C12.9381 51.6851 13.2872 51.8187 13.6363 51.8187C13.9854 51.8187 14.3345 51.6851 14.6004 51.4192C15.1336 50.886 15.1336 50.0242 14.6004 49.491L7.38272 42.2734L36.8181 12.838L47.1626 23.1824L17.0291 53.3146L6.14463 56.0351L3.96413 53.8546L5.41362 48.0591C5.59772 47.3282 5.15311 46.5877 4.42093 46.405C3.68863 46.2168 2.95094 46.6668 2.76824 47.3977L0.0409468 58.307C-0.0763575 58.772 0.0613373 59.2629 0.399539 59.6025C0.657233 59.8602 1.00633 60.0007 1.36364 60.0007C1.47414 60.0007 1.58453 59.9871 1.69364 59.9598L18.0572 55.8689C18.2972 55.8089 18.5167 55.6848 18.6913 55.5103L49.107 25.0946C49.7015 25.6087 50.4638 25.9101 51.2534 25.9101C53.0684 25.9101 54.5452 24.4333 54.5452 22.6183C54.5452 21.8301 54.2547 21.0569 53.7407 20.461L58.1534 16.0469C59.3439 14.8563 59.9998 13.2744 59.9998 11.5917Z" fill="#89ACC2"/>
<path d="M37.7824 18.1268C37.2492 17.5936 36.3874 17.5936 35.8542 18.1268L12.6725 41.3085C12.1393 41.8417 12.1393 42.7035 12.6725 43.2367C12.9384 43.5026 13.2875 43.6362 13.6366 43.6362C13.9857 43.6362 14.3348 43.5026 14.6007 43.2367L37.7824 20.055C38.3155 19.5218 38.3155 18.66 37.7824 18.1268Z" fill="#89ACC2"/>
<path d="M41.8733 22.2176C41.3401 21.6844 40.4783 21.6844 39.9451 22.2176L16.7634 45.3993C16.2302 45.9326 16.2302 46.7943 16.7634 47.3275C17.0293 47.5934 17.3784 47.727 17.7275 47.727C18.0766 47.727 18.4257 47.5934 18.6916 47.3275L41.8733 24.1458C42.4065 23.6126 42.4065 22.7509 41.8733 22.2176Z" fill="#89ACC2"/>
</g>
<defs>
<clipPath id="clip0">
<rect width="60" height="60" fill="white"/>
</clipPath>
</defs>
</svg>
