<svg width="60" height="60" viewBox="0 0 60 60" fill="none" xmlns="http://www.w3.org/2000/svg">
<path d="M54.7266 0.117188H5.27344C2.36566 0.117188 0 2.48285 0 5.39062V54.6094C0 57.5171 2.36566 59.8828 5.27344 59.8828H54.7266C57.6343 59.8828 60 57.5171 60 54.6094V5.39062C60 2.48285 57.6343 0.117188 54.7266 0.117188ZM5.27344 3.63281H54.7266C55.6958 3.63281 56.4844 4.42137 56.4844 5.39062V14.1797H3.51562V5.39062C3.51562 4.42137 4.30418 3.63281 5.27344 3.63281ZM54.7266 56.3672H5.27344C4.30418 56.3672 3.51562 55.5786 3.51562 54.6094V17.6953H56.4844V54.6094C56.4844 55.5786 55.6958 56.3672 54.7266 56.3672Z" fill="#89ACC2"/>
<path d="M35.9659 23.1108C35.0736 22.7284 34.0401 23.1418 33.6578 24.034L23.1109 48.6434C22.7284 49.5357 23.1418 50.5691 24.0341 50.9515C24.9267 51.334 25.9599 50.9203 26.3422 50.0283L36.8891 25.4189C37.2716 24.5266 36.8581 23.4932 35.9659 23.1108Z" fill="#89ACC2"/>
<path d="M20.8257 28.9018C20.2192 28.1437 19.1128 28.0209 18.3551 28.6273L9.566 35.6586C8.68721 36.3614 8.68663 37.7005 9.566 38.4038L18.3551 45.4351C19.1132 46.0416 20.2195 45.9186 20.8257 45.1606C21.4322 44.4025 21.3094 43.2963 20.5512 42.69L13.478 37.0312L20.5512 31.3726C21.3094 30.7661 21.4322 29.66 20.8257 28.9018Z" fill="#89ACC2"/>
<path d="M50.434 35.6586L41.6449 28.6274C40.8868 28.0208 39.7806 28.1438 39.1742 28.9018C38.5678 29.6599 38.6906 30.7662 39.4488 31.3725L46.522 37.0313L39.4488 42.6899C38.6906 43.2963 38.5678 44.4025 39.1742 45.1606C39.7815 45.9195 40.8879 46.0409 41.6449 45.435L50.434 38.4038C51.3128 37.701 51.3133 36.362 50.434 35.6586Z" fill="#89ACC2"/>
<path d="M8.90625 10.6641C9.87706 10.6641 10.6641 9.87706 10.6641 8.90625C10.6641 7.93544 9.87706 7.14844 8.90625 7.14844C7.93544 7.14844 7.14844 7.93544 7.14844 8.90625C7.14844 9.87706 7.93544 10.6641 8.90625 10.6641Z" fill="#89ACC2"/>
<path d="M15.9375 10.6641C16.9083 10.6641 17.6953 9.87706 17.6953 8.90625C17.6953 7.93544 16.9083 7.14844 15.9375 7.14844C14.9667 7.14844 14.1797 7.93544 14.1797 8.90625C14.1797 9.87706 14.9667 10.6641 15.9375 10.6641Z" fill="#89ACC2"/>
<path d="M22.9688 10.6641C23.9396 10.6641 24.7266 9.87706 24.7266 8.90625C24.7266 7.93544 23.9396 7.14844 22.9688 7.14844C21.9979 7.14844 21.2109 7.93544 21.2109 8.90625C21.2109 9.87706 21.9979 10.6641 22.9688 10.6641Z" fill="#89ACC2"/>
<path d="M40.5469 10.6641H51.0938C52.0645 10.6641 52.8516 9.87703 52.8516 8.90625C52.8516 7.93547 52.0645 7.14844 51.0938 7.14844H40.5469C39.5761 7.14844 38.7891 7.93547 38.7891 8.90625C38.7891 9.87703 39.5761 10.6641 40.5469 10.6641Z" fill="#89ACC2"/>
</svg>
