<svg width="30" height="30" viewBox="0 0 30 30" fill="none" xmlns="http://www.w3.org/2000/svg">
<path d="M27 0.600098H3.00001C1.68001 0.600098 0.600006 1.6801 0.600006 3.0001V27.0001C0.600006 28.3201 1.68001 29.4001 3.00001 29.4001H27C28.32 29.4001 29.4 28.3201 29.4 27.0001V3.0001C29.4 1.6801 28.32 0.600098 27 0.600098Z" fill="#89ACC2"/>
<path d="M19.2 15.6L19.8 12.6H16.8V10.2C16.8 9.3 17.28 9 18.6 9H19.8V6C19.8 6 18.6 6 17.4 6C14.94 6 13.2 7.44 13.2 10.2V12.6H10.2V15.6H13.2V24H16.8V15.6H19.2Z" fill="#222222"/>
</svg>
