<svg width="30" height="30" viewBox="0 0 30 30" fill="none" xmlns="http://www.w3.org/2000/svg">
<path d="M27 0.600098H3.00001C1.68001 0.600098 0.600006 1.6801 0.600006 3.0001V27.0001C0.600006 28.3201 1.68001 29.4001 3.00001 29.4001H27C28.32 29.4001 29.4 28.3201 29.4 27.0001V3.0001C29.4 1.6801 28.32 0.600098 27 0.600098Z" fill="#89ACC2"/>
<path d="M18.24 24H15.84H13.44C13.44 24 13.44 22.56 13.44 21.6C10.14 22.32 9.23999 19.8 9.23999 19.8C8.63999 18.6 8.03999 18 8.03999 18C6.83999 17.28 8.03999 17.4 8.03999 17.4C9.23999 17.4 9.83999 18.6 9.83999 18.6C10.92 20.4 12.78 20.1 13.44 19.8C13.44 19.2 13.68 18.3 14.04 18C11.4 17.7 9.23999 16.2 9.23999 13.2C9.23999 10.2 9.83999 9.6 10.44 9C10.32 8.7 9.83999 7.62 10.44 6C10.44 6 11.64 6 12.84 7.8C13.44 7.2 15.24 7.2 15.84 7.2C16.44 7.2 18.24 7.2 18.84 7.8C20.04 6 21.24 6 21.24 6C21.9 7.62 21.36 8.7 21.24 9C21.84 9.6 22.44 10.2 22.44 13.2C22.44 16.2 20.28 17.7 17.64 18C18 18.3 18.24 19.32 18.24 19.8V24Z" fill="#222222"/>
</svg>
