<svg width="30" height="30" viewBox="0 0 30 30" fill="none" xmlns="http://www.w3.org/2000/svg">
<path d="M16.1072 17.7328C16.0849 17.7153 16.0621 17.6984 16.0398 17.6805C16.0323 17.6748 16.0253 17.6684 16.018 17.6626C16.0022 17.6504 15.9926 17.6431 15.9926 17.6431H15.3453C15.0356 17.6637 14.7231 17.6981 14.4132 17.7304C14.048 17.7735 13.6847 17.8309 13.3239 17.8902C13.1436 17.9209 12.9636 17.9514 12.7854 17.9878C12.6076 18.0266 12.431 18.0675 12.2569 18.1116C11.9473 18.1934 11.635 18.3261 11.3399 18.4843C11.043 18.6404 10.7679 18.8397 10.5281 19.0644C10.2887 19.2901 10.0905 19.5494 9.94078 19.8129C9.8656 19.9444 9.80238 20.0775 9.75046 20.2079C9.72392 20.273 9.70283 20.3387 9.68296 20.4033C9.66163 20.4668 9.64259 20.5296 9.6273 20.5921C9.57128 20.8445 9.53894 21.0744 9.53642 21.3109C9.53156 21.4287 9.538 21.5486 9.54767 21.6722L9.54966 21.6954L9.55013 21.7013C9.55165 21.7126 9.54966 21.6995 9.5489 21.6942L9.55101 21.7102L9.56003 21.7791L9.57369 21.8727C9.58535 21.9386 9.59794 22.0056 9.61382 22.0701C9.67939 22.3287 9.764 22.576 9.88892 22.8066C10.016 23.0349 10.169 23.2561 10.3627 23.4576C10.5569 23.6573 10.7815 23.8484 11.0389 24.0129C11.5521 24.3455 12.177 24.5886 12.8422 24.7404C13.1755 24.8134 13.5192 24.8669 13.8682 24.8991C14.2172 24.928 14.5713 24.9378 14.9273 24.9337C15.0044 24.9332 15.1147 24.9294 15.194 24.9259C15.2778 24.9229 15.3652 24.9173 15.4528 24.9116C15.607 24.9005 15.7601 24.8833 15.9126 24.8623C18.245 24.5138 19.4878 22.5419 19.105 21.1384C18.7682 19.9038 16.6284 18.1464 16.1072 17.7328Z" fill="#89ACC2"/>
<path d="M15.6405 12.7199C17.3531 12.1641 18.1363 9.84942 17.39 7.55C16.6437 5.25057 14.6504 3.83712 12.9378 4.39297C11.2253 4.94881 10.442 7.26347 11.1883 9.56289C11.9346 11.8623 13.928 13.2758 15.6405 12.7199Z" fill="#89ACC2"/>
<path d="M25.2344 0.527344H4.8242C2.46094 0.527344 0.527344 2.46094 0.527344 4.8242V25.2343C0.527344 27.5977 2.46094 29.5312 4.8242 29.5312H25.2343C27.5977 29.5312 29.5312 27.5977 29.5312 25.2344V4.8242C29.5312 2.46094 27.5977 0.527344 25.2344 0.527344ZM21.16 21.5212C21.1474 21.5857 21.1361 21.6499 21.1205 21.7133C21.1059 21.7764 21.0888 21.8377 21.0673 21.9122C21.0325 22.0175 20.9893 22.1333 20.9449 22.2356C20.5757 23.0589 20.0443 23.7286 19.4239 24.2859C19.3084 24.3857 19.1888 24.4794 19.0673 24.5701C18.7017 24.8566 18.2766 25.1323 17.7776 25.3856C15.0237 26.7839 11.5215 26.178 11.5215 26.178L11.5216 26.1766C11.2314 26.1368 10.9385 26.0789 10.6446 25.9986L10.6458 26.0006C10.6458 26.0006 10.3783 25.9436 9.97699 25.7754C9.5976 25.6199 9.21727 25.4252 8.86852 25.1609C7.93201 24.5002 7.09395 23.6507 6.90316 22.4373C6.79547 21.7528 6.92695 21.0527 7.06178 20.5724C7.14645 20.2296 7.28121 19.901 7.45594 19.6089C7.52449 19.4949 7.59891 19.3865 7.67555 19.2818C7.75588 19.1797 7.83791 19.0807 7.92387 18.9884C8.09373 18.8016 8.27783 18.6375 8.46621 18.4904C8.65477 18.3432 8.84848 18.2135 9.04488 18.0981C9.24316 17.9851 9.43348 17.8729 9.63234 17.78C10.0265 17.5904 10.4147 17.4238 10.8136 17.2879C11.1913 17.1621 11.5792 17.0713 11.9902 17.0212C11.9992 17.0197 12.0076 17.018 12.0166 17.0166C13.104 16.8442 14.3411 16.8299 14.8388 16.8299C14.8846 16.8299 14.9263 16.8317 14.9682 16.8336C14.7694 16.6167 14.0426 15.7608 14.0426 14.844C14.0426 14.3167 14.1852 13.9557 14.3288 13.7257C11.676 13.9123 9.26285 12.4755 8.61557 10.1392C7.8607 7.41562 9.79137 4.50311 12.9278 3.63381C13.4867 3.47889 14.046 3.40066 14.5924 3.38994V3.38736C14.5924 3.38736 15.6731 3.36363 16.1091 3.32256C16.5452 3.28148 18.3465 2.17869 18.5171 2.04598C18.6878 1.91326 18.8394 1.96066 18.8394 1.96066C18.8394 1.96066 19.5504 2.53887 19.6073 2.65271C19.6642 2.76645 19.5125 2.98453 19.5125 2.98453C19.5125 2.98453 18.6498 4.16953 18.5266 4.32123C18.4033 4.47293 18.4791 4.69277 18.4791 4.69277L18.4788 4.69365C19.0428 5.16814 19.4923 5.75871 19.7812 6.44303L19.782 6.44174C19.782 6.44174 20.2972 7.50375 20.2989 8.83846C20.3007 10.1893 19.4462 11.289 18.337 12.1422C17.2278 12.9954 16.8202 13.7159 16.8202 14.171C16.8202 15.2964 17.4554 15.3181 18.6971 16.3315C18.7016 16.3353 18.7055 16.3386 18.71 16.3423C18.9914 16.5523 19.2691 16.7762 19.5418 17.0186C19.6973 17.157 19.85 17.3029 19.9968 17.4592C20.1005 17.5642 20.1966 17.6789 20.2887 17.7991C20.2949 17.8066 20.2989 17.8117 20.2989 17.8117H20.2985C20.3369 17.862 20.3747 17.913 20.4117 17.9651C20.6647 18.3315 20.8834 18.7481 21.0268 19.22C21.1352 19.5779 21.1993 19.9646 21.2225 20.3595L21.2227 20.3592C21.2227 20.3592 21.2263 20.4014 21.2277 20.4757C21.231 20.5626 21.2331 20.6498 21.2324 20.7372C21.2317 20.999 21.2047 21.2634 21.16 21.5212Z" fill="#89ACC2"/>
</svg>
