<svg width="30" height="30" viewBox="0 0 30 30" fill="none" xmlns="http://www.w3.org/2000/svg">
<path d="M26.25 0H3.75C1.67893 0 0 1.67893 0 3.75V26.25C0 28.3211 1.67893 30 3.75 30H26.25C28.3211 30 30 28.3211 30 26.25V3.75C30 1.67893 28.3211 0 26.25 0Z" fill="#89ACC2"/>
<path d="M8.60235 10.4692H3.57735V25.5842H8.60235V10.4692Z" fill="#222222"/>
<path d="M6.12378 3.18066C4.40453 3.18066 3.28125 4.31096 3.28125 5.7924C3.28125 7.24271 4.37039 8.40414 6.05723 8.40414H6.08973C7.84185 8.40414 8.93245 7.24271 8.93245 5.7924C8.89994 4.31096 7.84194 3.18066 6.12378 3.18066Z" fill="#222222"/>
<path d="M20.9343 10.1133C18.2689 10.1133 17.0749 11.5792 16.4064 12.6088V10.4687H11.3827C11.4493 11.8865 11.3827 25.5837 11.3827 25.5837H16.4063V17.1424C16.4063 16.6906 16.4388 16.2389 16.572 15.916C16.9346 15.0137 17.7618 14.0789 19.1497 14.0789C20.9668 14.0789 21.6948 15.4655 21.6948 17.4966V25.5837H26.7187V16.9159C26.7187 12.2731 24.2399 10.1133 20.9343 10.1133Z" fill="#222222"/>
</svg>
