<svg width="68" height="14" viewBox="0 0 68 14" fill="none" xmlns="http://www.w3.org/2000/svg">
<path d="M6.8 0L8.3267 4.69868H13.2672L9.27024 7.60263L10.7969 12.3013L6.8 9.39737L2.80306 12.3013L4.32976 7.60263L0.332816 4.69868H5.2733L6.8 0Z" fill="#D1A652"/>
<path d="M20.4 0L21.9267 4.69868H26.8672L22.8703 7.60263L24.3969 12.3013L20.4 9.39737L16.4031 12.3013L17.9298 7.60263L13.9328 4.69868H18.8733L20.4 0Z" fill="#D1A652"/>
<path d="M34 0L35.5267 4.69868H40.4672L36.4703 7.60263L37.997 12.3013L34 9.39737L30.0031 12.3013L31.5298 7.60263L27.5328 4.69868H32.4733L34 0Z" fill="#D1A652"/>
<path d="M47.6 0L49.1267 4.69868H54.0672L50.0702 7.60263L51.5969 12.3013L47.6 9.39737L43.603 12.3013L45.1297 7.60263L41.1328 4.69868H46.0733L47.6 0Z" fill="#D1A652"/>
<path d="M61.2 0L62.7267 4.69868H67.6672L63.6702 7.60263L65.1969 12.3013L61.2 9.39737L57.2031 12.3013L58.7297 7.60263L54.7328 4.69868H59.6733L61.2 0Z" fill="#D1A652"/>
</svg>
