<svg width="30" height="30" viewBox="0 0 30 30" fill="none" xmlns="http://www.w3.org/2000/svg">
<g clip-path="url(#clip0)">
<path d="M0.626242 5.57555C4.74362 9.06252 11.9684 15.1972 14.0918 17.11C14.3768 17.3681 14.6826 17.4994 15 17.4994C15.3167 17.4994 15.622 17.3694 15.9064 17.1124C18.0316 15.1978 25.2564 9.06252 29.3738 5.57555C29.6301 5.35887 29.6692 4.97801 29.4617 4.71311C28.9819 4.10098 28.2666 3.75 27.5 3.75H2.50001C1.73343 3.75 1.01806 4.10098 0.538351 4.71316C0.330812 4.97801 0.369894 5.35887 0.626242 5.57555Z" fill="#89ACC2"/>
<path d="M29.6375 7.46525C29.416 7.36213 29.1553 7.3981 28.971 7.5556C26.2745 9.84134 22.7216 12.8614 20.0422 15.1661C19.9012 15.2869 19.8219 15.4645 19.8249 15.6507C19.828 15.8362 19.914 16.0114 20.0593 16.1273C22.5489 18.1213 26.3008 20.8643 29.0101 22.8138C29.1181 22.8919 29.2463 22.9315 29.3751 22.9315C29.4727 22.9315 29.5704 22.909 29.6601 22.8626C29.8689 22.7558 30.0001 22.5409 30.0001 22.3065V8.03226C30 7.78875 29.8584 7.5672 29.6375 7.46525Z" fill="#89ACC2"/>
<path d="M0.99 22.8137C3.69996 20.8642 7.45242 18.1214 9.94143 16.1273C10.0867 16.0113 10.1728 15.8361 10.1758 15.6506C10.1788 15.4645 10.0995 15.2869 9.95854 15.166C7.27904 12.8613 3.72557 9.84129 1.02908 7.55555C0.843516 7.39805 0.582305 7.36331 0.362578 7.4652C0.141621 7.56715 0 7.7887 0 8.03221V22.3065C0 22.5409 0.13125 22.7558 0.339961 22.8626C0.429668 22.909 0.527344 22.9315 0.62502 22.9315C0.753809 22.9315 0.881953 22.8919 0.99 22.8137Z" fill="#89ACC2"/>
<path d="M29.234 24.514C26.6174 22.642 21.7974 19.1521 18.9202 16.8168C18.6859 16.6258 18.3465 16.6319 18.1158 16.8309C17.5513 17.3234 17.0788 17.7385 16.7437 18.04C15.7146 18.9689 14.2864 18.9689 13.2549 18.0387C12.9211 17.7378 12.4487 17.3215 11.8841 16.8308C11.6552 16.6306 11.3152 16.6245 11.0802 16.8168C8.21276 19.144 3.38733 22.6383 0.766489 24.5139C0.62059 24.6189 0.526606 24.7806 0.508325 24.9595C0.490629 25.1383 0.549809 25.3159 0.672504 25.4477C1.14559 25.9574 1.81209 26.2498 2.49998 26.2498H27.5C28.1879 26.2498 28.8538 25.9574 29.328 25.4478C29.4501 25.3165 29.5099 25.1389 29.4922 24.9601C29.4739 24.7813 29.3799 24.619 29.234 24.514Z" fill="#89ACC2"/>
</g>
<defs>
<clipPath id="clip0">
<rect width="30" height="30" fill="white"/>
</clipPath>
</defs>
</svg>
