<svg width="30" height="30" viewBox="0 0 30 30" fill="none" xmlns="http://www.w3.org/2000/svg">
<path d="M15 0C9.00908 0 4.13513 4.87394 4.13513 10.8648C4.13513 18.2996 13.8581 29.2144 14.2721 29.6754C14.6609 30.1085 15.3398 30.1078 15.7279 29.6754C16.1419 29.2144 25.8649 18.2996 25.8649 10.8648C25.8647 4.87394 20.9909 0 15 0ZM15 27.5232C11.7277 23.6362 6.09169 15.9675 6.09169 10.8649C6.09169 5.95277 10.0879 1.95656 15 1.95656C19.9121 1.95656 23.9083 5.95277 23.9083 10.8649C23.9082 15.9677 18.2731 23.635 15 27.5232Z" fill="#89ACC2"/>
<path d="M15 5.39844C11.9858 5.39844 9.53363 7.85064 9.53363 10.8648C9.53363 13.879 11.9858 16.3312 15 16.3312C18.0141 16.3312 20.4662 13.879 20.4662 10.8648C20.4662 7.85064 18.0141 5.39844 15 5.39844ZM15 14.3746C13.0646 14.3746 11.4902 12.8002 11.4902 10.8648C11.4902 8.92947 13.0647 7.355 15 7.355C16.9352 7.355 18.5097 8.92947 18.5097 10.8648C18.5097 12.8002 16.9352 14.3746 15 14.3746Z" fill="#89ACC2"/>
</svg>
