<svg width="30" height="30" viewBox="0 0 30 30" fill="none" xmlns="http://www.w3.org/2000/svg">
<g clip-path="url(#clip0)">
<path d="M29.227 22.1357L25.4985 18.4064C24.5037 17.4116 22.7656 17.4099 21.7692 18.4064L21.1475 19.0281L28.6055 26.4858L29.227 25.8643C30.2594 24.8318 30.2559 23.1629 29.227 22.1357Z" fill="#89ACC2"/>
<path d="M19.8702 20.2364C19.0856 20.8442 17.9664 20.8199 17.2495 20.1015L9.87742 12.7243C9.15888 12.0058 9.13468 10.8857 9.74248 10.1031L2.30161 2.6626C-0.899417 6.39384 -0.774261 12.0161 2.75864 15.549L14.4248 27.2202C17.815 30.6104 23.3682 31.06 27.3114 27.6771L19.8702 20.2364Z" fill="#89ACC2"/>
<path d="M11.5724 4.47556L7.84391 0.746251C6.8491 -0.248552 5.11104 -0.250251 4.1146 0.746251L3.49286 1.36799L10.9509 8.82561L11.5724 8.20405C12.6047 7.17175 12.6013 5.50277 11.5724 4.47556Z" fill="#89ACC2"/>
</g>
<defs>
<clipPath id="clip0">
<rect width="30" height="30" fill="white"/>
</clipPath>
</defs>
</svg>
