<svg width="30" height="30" viewBox="0 0 30 30" fill="none" xmlns="http://www.w3.org/2000/svg">
<g clip-path="url(#clip0)">
<path d="M18.6001 4.51758C17.613 2.87231 16.4014 1.37305 15 0.0625C13.5986 1.37305 12.387 2.87231 11.3999 4.51758H18.6001Z" fill="#89ACC2"/>
<path d="M10.843 5.51758C10.1736 6.79077 9.6416 8.13184 9.25562 9.51758H20.7444C20.3584 8.13184 19.8264 6.79077 19.157 5.51758H10.843Z" fill="#89ACC2"/>
<path d="M21.7839 9.51758H28.9541C28.3831 8.07032 27.5901 6.72095 26.604 5.51758H20.2805C20.9143 6.79712 21.418 8.13721 21.7839 9.51758Z" fill="#89ACC2"/>
<path d="M20.2805 24.5176H26.6055C27.5916 23.3142 28.3845 21.9646 28.9556 20.5176H21.7839C21.418 21.8977 20.9143 23.2378 20.2805 24.5176Z" fill="#89ACC2"/>
<path d="M9.71948 5.51758H3.39355C2.40723 6.72071 1.6145 8.07032 1.04346 9.51758H8.21606C8.58203 8.13721 9.08569 6.79712 9.71948 5.51758Z" fill="#89ACC2"/>
<path d="M25.7061 4.51758C23.2344 1.98999 19.9468 0.42041 16.4275 0.0869141C17.7205 1.41504 18.8372 2.9043 19.75 4.51758H25.7061Z" fill="#89ACC2"/>
<path d="M4.29248 25.5176C6.76465 28.0452 10.0525 29.615 13.5725 29.948C12.2795 28.6199 11.1628 27.1309 10.25 25.5176H4.29248Z" fill="#89ACC2"/>
<path d="M16.4275 29.948C19.9468 29.6147 23.2344 28.0449 25.7061 25.5176H19.75C18.8372 27.1309 17.7205 28.6199 16.4275 29.948Z" fill="#89ACC2"/>
<path d="M8.21606 20.5176H1.04541C1.61646 21.9646 2.40942 23.3142 3.39551 24.5176H9.71948C9.08569 23.2378 8.58203 21.8977 8.21606 20.5176Z" fill="#89ACC2"/>
<path d="M13.5725 0.0869141C10.0525 0.419922 6.76465 1.98975 4.29248 4.51758H10.25C11.1628 2.9043 12.2795 1.41504 13.5725 0.0869141Z" fill="#89ACC2"/>
<path d="M19.157 24.5176C19.8264 23.2441 20.3584 21.9033 20.7444 20.5176H9.25562C9.6416 21.9033 10.1736 23.2441 10.843 24.5176H19.157Z" fill="#89ACC2"/>
<path d="M11.3999 25.5176C12.387 27.1626 13.5986 28.6621 15 29.9724C16.4014 28.6621 17.613 27.1626 18.6001 25.5176H11.3999Z" fill="#89ACC2"/>
<path d="M29.3129 10.5176H0.688904C-0.228333 13.4473 -0.228333 16.5877 0.688904 19.5176H29.3129C30.2302 16.5877 30.2302 13.4473 29.3129 10.5176ZM7.98334 17.6489C7.92474 17.8643 7.73065 18.0147 7.50751 18.0176H7.50092C7.27997 18.0176 7.08539 17.8726 7.02191 17.6609L6.00092 14.2576L4.97992 17.6609C4.91644 17.8726 4.72186 18.0176 4.50092 18.0176H4.49432C4.27142 18.0147 4.07709 17.8643 4.01849 17.6489L2.51849 12.1489L3.48334 11.886L4.52386 15.7009L5.52386 12.374C5.58734 12.1624 5.78192 12.0173 6.00287 12.0173C6.22382 12.0173 6.41864 12.1624 6.48187 12.374L7.48187 15.7009L8.5224 11.886L9.48749 12.1489L7.98334 17.6489ZM16.9833 17.6489C16.9247 17.8643 16.7307 18.0147 16.5075 18.0176H16.5009C16.28 18.0176 16.0854 17.8726 16.0219 17.6609L15.0009 14.2576L13.9799 17.6609C13.9164 17.8726 13.7219 18.0176 13.5009 18.0176H13.4943C13.2714 18.0147 13.0771 17.8643 13.0185 17.6489L11.5185 12.1489L12.4833 11.886L13.5239 15.7009L14.5239 12.374C14.5873 12.1624 14.7819 12.0173 15.0029 12.0173C15.2238 12.0173 15.4186 12.1624 15.4819 12.374L16.4819 15.7009L17.5224 11.886L18.4875 12.1489L16.9833 17.6489ZM25.9833 17.6489C25.9247 17.8643 25.7307 18.0147 25.5075 18.0176H25.5009C25.28 18.0176 25.0854 17.8726 25.0219 17.6609L24.0009 14.2576L22.9799 17.6609C22.9164 17.8726 22.7219 18.0176 22.5009 18.0176H22.4943C22.2714 18.0147 22.0771 17.8643 22.0185 17.6489L20.5185 12.1489L21.4833 11.886L22.5239 15.7009L23.5239 12.374C23.5873 12.1624 23.7819 12.0173 24.0029 12.0173C24.2238 12.0173 24.4186 12.1624 24.4819 12.374L25.4819 15.7009L26.5224 11.886L27.4875 12.1489L25.9833 17.6489Z" fill="#89ACC2"/>
</g>
<defs>
<clipPath id="clip0">
<rect width="30" height="30" fill="white"/>
</clipPath>
</defs>
</svg>
